<svg xmlns="http://www.w3.org/2000/svg" xmlns:xlink="http://www.w3.org/1999/xlink" width="500" zoomAndPan="magnify" viewBox="0 0 375 374.999991" height="500" preserveAspectRatio="xMidYMid meet" version="1.0"><defs><clipPath id="fea2a1e623"><path d="M 133 72.265625 L 242 72.265625 L 242 302.515625 L 133 302.515625 Z M 133 72.265625 " clip-rule="nonzero"/></clipPath></defs><rect x="-37.5" width="450" fill="#ffffff" y="-37.499999" height="449.999989" fill-opacity="1"/><rect x="-37.5" width="450" fill="#002714" y="-37.499999" height="449.999989" fill-opacity="1"/><g clip-path="url(#fea2a1e623)"><path fill="#01ec64" d="M 207.457031 98.289062 C 197.816406 86.867188 189.515625 75.261719 187.816406 72.851562 C 187.777344 72.8125 187.730469 72.777344 187.675781 72.753906 C 187.621094 72.730469 187.5625 72.71875 187.503906 72.71875 C 187.445312 72.71875 187.390625 72.730469 187.335938 72.753906 C 187.28125 72.777344 187.234375 72.8125 187.191406 72.851562 C 185.496094 75.261719 177.195312 86.867188 167.550781 98.289062 C 84.792969 203.691406 180.585938 274.824219 180.585938 274.824219 L 181.390625 275.359375 C 182.105469 286.335938 183.890625 302.136719 183.890625 302.136719 L 191.03125 302.136719 C 191.03125 302.136719 192.816406 286.425781 193.53125 275.359375 L 194.335938 274.734375 C 194.425781 274.824219 290.214844 203.691406 207.457031 98.289062 Z M 187.460938 273.214844 C 187.460938 273.214844 183.175781 269.558594 182.015625 267.683594 L 182.015625 267.503906 L 187.191406 152.730469 C 187.191406 152.375 187.726562 152.375 187.726562 152.730469 L 192.90625 267.503906 L 192.90625 267.683594 C 191.746094 269.558594 187.460938 273.214844 187.460938 273.214844 Z M 187.460938 273.214844 " fill-opacity="1" fill-rule="nonzero"/></g></svg>