<svg xmlns="http://www.w3.org/2000/svg" xmlns:xlink="http://www.w3.org/1999/xlink" width="500" zoomAndPan="magnify" viewBox="0 0 375 374.999991" height="500" preserveAspectRatio="xMidYMid meet" version="1.0"><defs><g/><clipPath id="8b8c8506ca"><path d="M 203.109375 215.851562 L 305.859375 215.851562 L 305.859375 318.601562 L 203.109375 318.601562 Z M 203.109375 215.851562 " clip-rule="nonzero"/></clipPath></defs><g clip-path="url(#8b8c8506ca)"><path fill="#118cf0" d="M 305.640625 267.125 C 305.640625 268.800781 305.558594 270.476562 305.394531 272.148438 C 305.230469 273.820312 304.984375 275.480469 304.65625 277.125 C 304.328125 278.773438 303.921875 280.398438 303.433594 282.007812 C 302.949219 283.613281 302.382812 285.191406 301.738281 286.742188 C 301.097656 288.296875 300.378906 289.8125 299.589844 291.292969 C 298.796875 292.773438 297.933594 294.210938 297 295.609375 C 296.070312 297.003906 295.070312 298.351562 294.003906 299.648438 C 292.9375 300.945312 291.8125 302.191406 290.625 303.375 C 289.4375 304.5625 288.195312 305.691406 286.898438 306.753906 C 285.601562 307.820312 284.253906 308.820312 282.855469 309.753906 C 281.460938 310.6875 280.023438 311.546875 278.539062 312.339844 C 277.058594 313.132812 275.542969 313.847656 273.992188 314.492188 C 272.441406 315.132812 270.863281 315.699219 269.253906 316.1875 C 267.648438 316.671875 266.023438 317.082031 264.375 317.410156 C 262.726562 317.734375 261.070312 317.980469 259.398438 318.148438 C 257.726562 318.3125 256.050781 318.394531 254.371094 318.394531 C 252.691406 318.394531 251.019531 318.3125 249.347656 318.148438 C 247.675781 317.980469 246.015625 317.734375 244.371094 317.410156 C 242.722656 317.082031 241.097656 316.671875 239.488281 316.1875 C 237.882812 315.699219 236.304688 315.132812 234.753906 314.492188 C 233.199219 313.847656 231.683594 313.132812 230.203125 312.339844 C 228.722656 311.546875 227.285156 310.6875 225.886719 309.753906 C 224.492188 308.820312 223.144531 307.820312 221.847656 306.753906 C 220.550781 305.691406 219.304688 304.5625 218.117188 303.375 C 216.929688 302.191406 215.804688 300.945312 214.738281 299.648438 C 213.675781 298.351562 212.675781 297.003906 211.742188 295.609375 C 210.808594 294.210938 209.949219 292.773438 209.15625 291.292969 C 208.363281 289.8125 207.648438 288.296875 207.003906 286.742188 C 206.363281 285.191406 205.796875 283.613281 205.308594 282.007812 C 204.824219 280.398438 204.414062 278.773438 204.085938 277.125 C 203.761719 275.480469 203.515625 273.820312 203.347656 272.148438 C 203.183594 270.476562 203.101562 268.800781 203.101562 267.125 C 203.101562 265.445312 203.183594 263.769531 203.347656 262.097656 C 203.515625 260.425781 203.761719 258.769531 204.085938 257.121094 C 204.414062 255.472656 204.824219 253.847656 205.308594 252.242188 C 205.796875 250.632812 206.363281 249.054688 207.003906 247.503906 C 207.648438 245.953125 208.363281 244.4375 209.15625 242.953125 C 209.949219 241.472656 210.808594 240.035156 211.742188 238.640625 C 212.675781 237.242188 213.675781 235.894531 214.738281 234.597656 C 215.804688 233.300781 216.929688 232.058594 218.117188 230.871094 C 219.304688 229.683594 220.550781 228.554688 221.847656 227.492188 C 223.144531 226.425781 224.492188 225.425781 225.886719 224.492188 C 227.285156 223.5625 228.722656 222.699219 230.203125 221.90625 C 231.683594 221.117188 233.199219 220.398438 234.753906 219.757812 C 236.304688 219.113281 237.882812 218.546875 239.488281 218.0625 C 241.097656 217.574219 242.722656 217.167969 244.371094 216.839844 C 246.015625 216.511719 247.675781 216.265625 249.347656 216.101562 C 251.019531 215.9375 252.691406 215.851562 254.371094 215.851562 C 256.050781 215.851562 257.726562 215.9375 259.398438 216.101562 C 261.070312 216.265625 262.726562 216.511719 264.375 216.839844 C 266.023438 217.167969 267.648438 217.574219 269.253906 218.0625 C 270.863281 218.546875 272.441406 219.113281 273.992188 219.757812 C 275.542969 220.398438 277.058594 221.117188 278.539062 221.90625 C 280.023438 222.699219 281.460938 223.5625 282.855469 224.492188 C 284.253906 225.425781 285.601562 226.425781 286.898438 227.492188 C 288.195312 228.554688 289.4375 229.683594 290.625 230.871094 C 291.8125 232.058594 292.9375 233.300781 294.003906 234.597656 C 295.070312 235.894531 296.070312 237.242188 297 238.640625 C 297.933594 240.035156 298.796875 241.472656 299.589844 242.953125 C 300.378906 244.4375 301.097656 245.953125 301.738281 247.503906 C 302.382812 249.054688 302.949219 250.632812 303.433594 252.242188 C 303.921875 253.847656 304.328125 255.472656 304.65625 257.121094 C 304.984375 258.769531 305.230469 260.425781 305.394531 262.097656 C 305.558594 263.769531 305.640625 265.445312 305.640625 267.125 Z M 305.640625 267.125 " fill-opacity="1" fill-rule="nonzero"/></g><g fill="#118cf0" fill-opacity="1"><g transform="translate(69.360785, 320.200514)"><g><path d="M 29.15625 0 L 29.15625 -249.3125 L 115.171875 -249.3125 L 115.171875 -213.34375 L 116.15625 -213.34375 C 116.800781 -214.644531 117.851562 -216.265625 119.3125 -218.203125 C 120.769531 -220.148438 123.925781 -223.550781 128.78125 -228.40625 C 133.644531 -233.269531 138.828125 -237.644531 144.328125 -241.53125 C 149.835938 -245.414062 156.96875 -248.894531 165.71875 -251.96875 C 174.46875 -255.050781 183.378906 -256.59375 192.453125 -256.59375 C 201.847656 -256.59375 211.082031 -255.296875 220.15625 -252.703125 C 229.226562 -250.117188 235.867188 -247.53125 240.078125 -244.9375 L 246.875 -241.046875 L 210.921875 -168.15625 C 200.222656 -177.226562 185.316406 -181.765625 166.203125 -181.765625 C 155.835938 -181.765625 146.925781 -179.492188 139.46875 -174.953125 C 132.019531 -170.421875 126.753906 -164.914062 123.671875 -158.4375 C 120.597656 -151.957031 118.410156 -146.445312 117.109375 -141.90625 C 115.816406 -137.375 115.171875 -133.8125 115.171875 -131.21875 L 115.171875 0 Z M 29.15625 0 "/></g></g></g></svg>